<svg id="visual" viewBox="0 0 900 600" width="900" height="600" xmlns="http://www.w3.org/2000/svg" xmlns:xlink="http://www.w3.org/1999/xlink" version="1.1"><rect x="0" y="0" width="900" height="600" fill="#0b0e0f"></rect><defs><linearGradient id="grad1_0" x1="33.3%" y1="0%" x2="100%" y2="100%"><stop offset="20%" stop-color="#0b0e0f" stop-opacity="1"></stop><stop offset="80%" stop-color="#0b0e0f" stop-opacity="1"></stop></linearGradient></defs><defs><linearGradient id="grad2_0" x1="0%" y1="0%" x2="66.7%" y2="100%"><stop offset="20%" stop-color="#0b0e0f" stop-opacity="1"></stop><stop offset="80%" stop-color="#0b0e0f" stop-opacity="1"></stop></linearGradient></defs><g transform="translate(900, 0)"><path d="M0 243.4C-10.8 211.8 -21.5 180.2 -41.6 182.3C-61.7 184.4 -91.1 220.2 -105.6 219.3C-120.1 218.4 -119.8 180.8 -130.3 163.4C-140.8 146 -162 148.9 -175.1 139.7C-188.3 130.4 -193.3 109.1 -186.5 89.8C-179.7 70.5 -161.1 53.1 -168.7 38.5C-176.2 23.9 -209.8 11.9 -243.4 0L0 0Z" fill="#fe5733"></path></g><g transform="translate(0, 600)"><path d="M0 -243.4C21.9 -250.2 43.9 -256.9 54.2 -237.3C64.4 -217.6 63 -171.5 76.8 -159.5C90.6 -147.4 119.6 -169.5 133.4 -167.3C147.3 -165.2 145.9 -138.9 154 -122.8C162.1 -106.8 179.6 -101 185.6 -89.4C191.6 -77.7 186.3 -60.2 194 -44.3C201.7 -28.4 222.6 -14.2 243.4 0L0 0Z" fill="#fe5733"></path></g></svg>